<svg data-v-0dd9719b="" version="1.0" xmlns="http://www.w3.org/2000/svg" xmlns:xlink="http://www.w3.org/1999/xlink" width="100%" height="100%" viewBox="0 0 340.000000 250.000000" preserveAspectRatio="xMidYMid meet" color-interpolation-filters="sRGB" style="margin: auto;"> <rect data-v-0dd9719b="" x="0" y="0" width="100%" height="100%" fill="#ffffff" fill-opacity="1" class="background"></rect> <rect data-v-0dd9719b="" x="0" y="0" width="100%" height="100%" fill="url(#watermark)" fill-opacity="1" class="watermarklayer"></rect> <g data-v-0dd9719b="" fill="#fbbc09" class="icon-text-wrapper icon-svg-group iconsvg" transform="translate(46.5,106.3480396270752)"><g class="iconsvg-imagesvg" transform="translate(0,0)"><g><rect fill="#fbbc09" fill-opacity="0" stroke-width="2" x="0" y="0" width="60" height="37.30392126385686" class="image-rect"></rect> <svg filter="url(#colors4505441044)" x="0" y="0" width="60" height="37.30392126385686" filtersec="colorsf4167993328" class="image-svg-svg primary" style="overflow: visible;"><svg xmlns="http://www.w3.org/2000/svg" viewBox="0 0 103.39999 65.8"><path d="M37.2 8C29.1 0 16.1 0 8 8c-8 8-8 21.1 0 29.1s21.1 8 29.1 0l.7-.7 13.9-13.9L65.6 8.7l.7-.7c8-8 21.1-8 29.1 0s8 21.1 0 29.1-21.1 8-29.1 0v20.6c8 8 21.1 8 29.1 0s8-21.1 0-29.1-21.1-8-29.1 0l-.7.7-13.9 13.9-13.9 13.9-.7.7c-8 8-21.1 8-29.1 0S0 36.7 8 28.7s21.1-8 29.1 0V8z" fill="none" stroke="#202121" stroke-width="4" stroke-miterlimit="10"></path></svg></svg> <defs><filter id="colors4505441044"><feColorMatrix type="matrix" values="0 0 0 0 0.94140625  0 0 0 0 0.31640625  0 0 0 0 0.10546875  0 0 0 1 0" class="icon-fecolormatrix"></feColorMatrix></filter> <filter id="colorsf4167993328"><feColorMatrix type="matrix" values="0 0 0 0 0.99609375  0 0 0 0 0.99609375  0 0 0 0 0.99609375  0 0 0 1 0" class="icon-fecolormatrix"></feColorMatrix></filter> <filter id="colorsb9048051826"><feColorMatrix type="matrix" values="0 0 0 0 0  0 0 0 0 0  0 0 0 0 0  0 0 0 1 0" class="icon-fecolormatrix"></feColorMatrix></filter></defs></g></g> <g transform="translate(67,5.421960830688477)"><g data-gra="path-name" fill-rule="" class="tp-name iconsvg-namesvg"><g transform="scale(1)"><g><path d="M25.63 0L21.48 0 19.57-6.78 7.53-6.78 4.22 0 0 0 13.01-26.46 18.2-26.46 25.63 0ZM15.17-22.42L9.34-10.49 18.53-10.49 15.17-22.42ZM28.37-26.46L25.63 0 29.38 0 30.64-12.11 43.4-12.11 43.79-15.86 31.03-15.86 31.79-22.74 45.49-22.74 46.75-26.46 28.37-26.46ZM56.44-22.74L54.03 0 57.85 0 60.23-22.74 69.24-22.74 69.56-26.46 47.87-26.46 47.47-22.74 56.44-22.74ZM72.37-26.46L69.56 0 87.4 0 88.67-3.71 73.71-3.71 74.65-12.11 87.33-12.11 87.73-15.86 75.01-15.86 75.73-22.74 90.29-22.74 90.68-26.46 72.37-26.46ZM93.5-26.46L112.13-26.46 110.4-10.34 106.47-10.34 110.08 0 106.26 0 102.69-10.34 95.55-10.34 94.47 0 90.68 0 93.5-26.46ZM95.95-14.06L107.05-14.06 107.99-22.74 96.85-22.74 95.95-14.06ZM114.94-26.46L112.13 0 129.9 0 131.2-3.71 116.31-3.71 118.69-26.46 114.94-26.46ZM131.2 0L134.95 0 137.76-26.46 133.94-26.46 131.2 0ZM140.5-26.46L137.76 0 141.51 0 142.77-12.11 155.53-12.11 155.92-15.86 143.16-15.86 143.92-22.74 157.62-22.74 158.88-26.46 140.5-26.46ZM161.69-26.46L158.88 0 176.72 0 177.98-3.71 163.02-3.71 163.96-12.11 176.65-12.11 177.04-15.86 164.32-15.86 165.04-22.74 179.6-22.74 180-26.46 161.69-26.46Z" transform="translate(0, 26.459999084472656)"></path></g> <!----> <!----> <!----> <!----> <!----> <!----> <!----></g></g> <!----></g></g><defs v-gra="od"></defs></svg>